<svg xmlns="http://www.w3.org/2000/svg" viewBox="0 0 613 585" aria-label="Map of France departments"><path id="01" aria-label="Ain" d="m 413.70408,308.36159 6.69,-20.52 0.4,1.07 1.39,-0.84 3.02,1.84 3.26,-1.47 1.3,0.28 0.05,-0.91 1.58,0.81 1.23,2.86 3.26,0.7 0,0 0.38,1.07 -1.02,0.92 3.23,1.85 -0.65,0.72 1.72,1.9 0.04,1.68 0.85,-2.24 0.53,1.95 1.59,-0.01 -0.76,2.46 0.69,0.61 2.71,-0.25 1.12,-1.55 1.24,-0.09 1.96,-2.92 0.15,1.23 2.79,0.89 0.48,2.9 5.99,-0.23 8.1,-9.07 0,0 4.37,2.95 -2.81,4.91 0.93,2.04 -6,2.06 -0.64,1.2 1.25,0.91 -1.59,2.91 0,0 -2.64,0.81 -0.26,1.99 -2.77,-1.09 -0.59,5.3 1.17,2.49 -0.24,2.05 0,0 -2.2,12.71 -1.08,1.12 -1.97,-0.3 -0.61,4.09 -2.58,1.67 0,0 -1.02,-2.67 -2.36,-2.01 0.42,-0.99 -5.39,-5.73 0.32,-1.78 -3.27,-2.82 -2.08,2.12 -1.32,3.32 -1.94,1.36 -1.41,-0.23 -1.64,-1.96 -1.44,-0.3 -0.34,0.78 -0.21,-0.95 0,0 -7.62,0.63 0,-2.26 -1.54,-3.26 -1.39,-1 -1.8,0.99 0.17,-1.4 -3.27,-1.31 1,-1.81 -0.32,-6.96 2.33,-3.73 z"/><path id="02" aria-label="Aisne" d="m 346.97408,70.521588 3.58,-1.35 0.79,1.17 2.14,-0.11 1.42,-1.34 5.28,1.2 2.2,-2.36 2.07,0.68 0.84,1.23 1.08,-0.84 0.81,0.55 0.18,-1.55 2.11,-1.02 1.28,1.11 5.26,0.96 0.63,1.83 3.94,-2.24 0.55,1.15 -0.62,2.11 3.39,0.59 1.04,0.98 2.31,-0.69 0,0 2.07,0.58 0.12,0.91 1.51,-0.17 0,0 -0.6,2.9 1.58,0.63 -0.1,2.29 -1.96,5.67 1.82,1.47 -2.69,3.72 -2.44,1.34 -0.47,2.88 -3.07,-0.3 -0.73,1.01 2.26,3.25 -1.17,1.680002 1.09,0.19 0.14,1.11 -1.58,1.13 0.04,2.5 1.09,1.41 -1.27,0.46 0.42,2.04 0,0 -0.48,2.93 -3.2,-1.09 -1.49,-1.87 -2.83,1.69 -0.18,2.25 -3.05,-0.73 -5.51,2.72 0.85,2.84 -0.56,0.94 1.08,1.22 -1.01,1.39 1.18,1 0.69,-0.62 0.66,1.9 1.42,-0.27 -0.03,1.41 -1.8,1.05 -0.78,-0.75 -2.66,0.23 -0.89,1.95 1.55,2.68 -2.13,1.07 -0.07,1.47 2.72,-0.39 1.12,1.83 -1.51,0.63 -0.85,2.39 -1.28,0.38 0.54,1.09 -1.22,0.22 -0.14,1.56 -1.76,0.16 -1.78,3.77 0,0 -1,0.92 -0.64,-1.43 -2.6,-0.73 -0.64,-3.55 -1.6,1.28 -1,-2.56 -1.67,0.62 -0.55,-2.12 -3.48,-2.51 0.97,-2.39 -1.55,-2.05 0.47,-1.02 -3.83,-1.13 0,0 0.95,-1.64 0.68,0.73 -0.24,-1.09 1.73,-0.75 -1.63,-0.45 0.36,-0.56 0,0 0.01,-0.52 0,0 -0.66,-0.84 -0.52,2.44 -0.18,-2.11 -3.18,-1.48 -0.19,1.7 1.38,0.27 -0.57,0.9 -1.22,-1.58 -0.32,0.69 -0.71,-0.45 -0.38,-2.2 1.8,-0.61 0.88,1.21 0.71,-0.98 -0.08,-3.45 -2.17,-0.11 -0.71,-2.47 1.33,-0.86 1.8,0.76 2.11,-3.07 -0.06,-3.6 2.95,-0.43 -2.4,-1.67 0.7,-1.21 -1.25,-1.78 1.33,-0.8 0.5,-3.130002 -1.87,-3.04 0.86,-1.05 -0.65,-1.13 1.22,-0.32 -0.31,-2.84 0,0 0,0 0,0 -0.02,-0.18 0,0 -0.83,-3.7 -1.45,-0.26 0.9,-2.2 -1.31,-1.74 1.25,-0.64 -0.36,-2.4 0.48,0.86 1.34,-1.17 0.12,-2.61 3.34,-3.81 -2.03,-0.47 z"/><path id="03" aria-label="Allier" d="m 309.92408,293.77159 0.74,-3.03 1.03,-0.01 1.56,-2.77 5.24,-0.96 2.06,0.81 3.24,-2.06 -0.45,-2.48 -1.55,-0.86 1.22,-1.84 -1.07,-1.19 1.45,-0.75 0.95,0.77 -0.15,-1.91 3.21,-1.71 0.59,-1.61 0.74,-0.13 1.14,1.84 1.56,-1.08 1.98,0.55 0.14,-1.2 2.95,-2.86 1.78,-0.69 2.81,0.57 0,0 1.11,2.64 2.94,1.43 3.04,3.12 2.78,-2.49 1.31,0.06 0.53,1.6 1.39,0.33 1.34,-1.73 1.72,-0.08 1.32,1.46 -0.39,1.63 1.63,0.75 1.38,-1.98 1.88,-0.35 -0.55,-2.04 2.05,-0.09 0,0 -0.48,-0.92 0,0 0.46,-1.57 1.36,0.99 0,0 0.39,2.55 2.47,2.9 1,1.93 -0.34,1.1 0.95,0.4 0.23,3.82 2.64,1.2 1.39,-0.76 1.15,2.55 3.59,-0.21 -0.02,0.89 1.95,0.95 -0.98,3.8 0.36,4.18 0.82,0.08 -0.71,0.76 -1.7,-0.41 -0.09,1.26 -1.95,0.44 0.07,1.04 0,0 -0.89,0 0,0 -0.44,0.81 -2.67,0.25 0.05,1.05 -1.5,0.09 1.69,4.56 -0.8,0.42 0.15,2.63 1.18,1.39 -0.67,2.1 1.07,3.23 -1.8,1.54 -1.33,-0.57 -0.52,1.03 -1.44,-0.47 -0.62,2.58 0,0 -0.7,-1.65 -1.84,-0.23 -1.71,-3.68 -5.27,0.93 -0.1,-3.1 0,0 -0.99,0 0,0 -0.79,-0.87 -3.61,1.74 -1.22,-1.24 -7.19,-0.25 -1.28,-0.81 -0.29,-1.86 -3.2,0.73 -1.9,-1.28 -0.68,-2.78 -1.6,-0.44 0.01,-2.16 1.34,-1.61 -1.1,-0.59 -3.64,0.23 -0.93,3.04 -3.2,-1.57 -0.38,2.43 -2.04,0.59 -1.47,3.18 -2.97,-1.46 0,0 -3.53,-8.19 -2.11,-0.96 -0.42,0.78 -1.4,-2.9 -0.95,1.27 -2.6,-1.97 1.35,-1.57 -1.97,-0.72 z"/><path id="04" aria-label="Alpes-de-Haute-Provence" d="m 450.89408,424.90159 4.99,-1.28 4.7,1.34 0.15,-0.85 -1.51,-0.55 -2.14,-3.89 0.5,-0.95 1.22,0.12 2.29,2.77 0.17,-3.85 -1.14,-0.08 0.18,-1.21 1.54,-1.33 0.5,-2.09 4.33,-3.15 0.82,0.71 0.33,-2.28 3.09,0.93 -0.3,1.15 0.98,0.1 2.18,3.36 1.45,-1.75 -1.2,-2.93 2.62,-1.1 1.27,1.03 0.84,-2 -0.62,-0.65 1.25,-0.74 2.05,3.04 0.95,-0.27 1.42,1.37 6.79,0.23 1.97,-5.45 2.51,-0.73 1.15,-1.97 3.13,-1.24 2.8,-2.88 1.63,0.21 0,0 0.69,2.13 -0.75,0.06 -0.72,2.58 -3.19,2.53 0.94,2.86 2.91,2.91 -2.3,0.48 -0.19,3.51 0,0 -3.16,1.7 -0.91,3.33 -1,-0.34 -1.43,1.63 -1.83,4.76 2.94,5.16 -0.43,2.23 3.73,2.92 0.48,2.08 1.02,0.03 2.91,3.13 -2.4,0.62 -2.25,-1.68 -3.38,2.66 -3.18,-0.96 1.2,1.79 -1.45,1.52 1.86,0.96 -3.18,1.42 0,0 -0.46,-0.9 -1.48,-0.03 -1.93,1.73 -1.01,-1.95 -1.36,1.03 -2.9,-0.05 -0.03,1.78 -1.29,1.52 -2.37,-0.74 -3.16,-3.12 -1.45,0.11 -2.33,3.06 -2.17,0.07 -3.51,4.31 -1.45,-2.6 -2.06,-0.93 -0.48,-1.53 -0.96,0.21 -0.08,1.26 -2.12,0.79 -0.84,-1.7 -2.02,-0.32 -0.86,1.19 0,0 -4.38,-5.31 -3.28,-0.27 -1.26,0.79 0.08,-2 2.55,-3.66 -1.15,0.02 -0.56,-1.52 -2.46,-0.57 1.49,-6.67 -1.65,0.2 -0.25,-3.02 0,0 3.33,-2.08 -0.59,-1.08 0.56,-1 1.31,-0.13 1.25,1.3 -0.35,1 1.96,0.24 0.17,-0.99 -1.63,-0.3 0.36,-1.19 z"/><path id="05" aria-label="Hautes-Alpes" d="m 475.15408,370.50159 1.39,1.08 1.63,-0.89 1.28,1.21 0.03,1.9 3.58,1.06 1.47,-0.18 -0.26,-2.22 1.25,-0.96 1.3,0.56 1.51,-1.41 2.19,0.87 0,0 1.75,5.3 2.94,0.33 -0.23,1.48 1.07,1.67 -0.87,1.25 0.31,1.97 4.67,3.21 1.95,0.38 1.05,-1.06 3.6,2.26 -0.94,2 3.19,6.09 -3.71,-0.37 -1.52,2.01 0,0 -1.63,-0.21 -2.8,2.88 -3.13,1.24 -1.15,1.97 -2.51,0.73 -1.97,5.45 -6.79,-0.23 -1.42,-1.37 -0.95,0.27 -2.05,-3.04 -1.25,0.74 0.62,0.65 -0.84,2 -1.27,-1.03 -2.62,1.1 1.2,2.93 -1.45,1.75 -2.18,-3.36 -0.98,-0.1 0.3,-1.15 -3.09,-0.93 -0.33,2.28 -0.82,-0.71 -4.33,3.15 -0.5,2.09 -1.54,1.33 -0.18,1.21 1.14,0.08 -0.17,3.85 -2.29,-2.77 -1.22,-0.12 -0.5,0.95 2.14,3.89 1.51,0.55 -0.15,0.85 -4.7,-1.34 -4.99,1.28 0,0 0.44,-4.37 -1.64,0 -0.43,-1.95 -1.19,-0.33 0.88,-1.57 -3.38,0.18 -1.1,-1.18 -1.25,0.72 -1.21,-1.67 -1.21,-0.21 0.43,-1.18 -1.03,-1.93 0.82,-0.51 1.6,0.81 0.84,-0.92 -1.36,-0.72 -0.27,-2.98 5.98,1.97 1.1,-2.02 1.44,-0.09 -2.75,-2.45 2.11,-3.94 -0.26,-2.22 3.63,0.64 0.84,-1.34 1.67,0.51 1.7,-2.16 -1.31,-0.93 0,0 1.17,-3.09 2.32,0.76 2.83,-0.82 1.21,-1.23 -1.27,-1.36 3.02,-1.89 1.42,1.24 3.22,-2.82 4.7,0.72 2.03,-1.29 1.09,1.27 1.38,-0.15 0.11,-4.94 -1.48,-0.84 0.05,-2.63 -3,0.13 -1.96,-1.15 0.64,-2.83 1.02,-0.36 -0.54,-1.95 z"/><path id="06" aria-label="Alpes-Maritimes" d="m 501.88408,415.28159 2.67,4.28 1.02,0.19 0.07,1.66 1.42,1.61 1.67,-0.48 3.01,1.85 1.83,-0.06 3.82,3.5 2.64,-0.31 0.6,1.78 1.46,-0.56 1.33,0.75 0.25,-1.05 1.26,0.28 4.19,-1.78 2.35,0.39 0.76,-1.57 1.96,0.11 -0.72,2.52 2.01,2.79 -0.4,2.36 -1.76,0.77 -0.44,3.13 -3.54,1.86 -0.31,2.57 -2.57,1.34 1.45,4.98 -1.84,2.2 -1.43,-0.53 -1.79,2.09 -2.92,0.53 -0.24,2.08 -0.74,-1.74 -0.45,1.21 -2.58,-0.22 -1.38,2.2 -2.16,-0.14 -1.27,2.89 0.47,3.24 -1.64,-1.44 -2.48,2.04 -0.74,-0.83 -2.05,0.24 -1.41,1.64 0.8,1.12 -1.15,1.16 0,0 -1.86,-1.5 0.46,-1.36 -0.71,-0.14 1.4,-3.96 -4.67,-1.67 -1.52,-2.17 0.51,-2.17 -0.89,-2.12 -1.68,0.1 -1.13,-1.03 -1.14,0.51 -0.98,-2.33 0,0 3.18,-1.42 -1.86,-0.96 1.45,-1.51 -1.2,-1.79 3.18,0.95 3.38,-2.66 2.25,1.68 2.4,-0.61 -2.9,-3.14 -1.03,-0.03 -0.48,-2.08 -3.72,-2.92 0.42,-2.23 -2.94,-5.16 1.83,-4.76 1.43,-1.63 1,0.34 0.91,-3.33 3.16,-1.71 0,0 0.72,0.16 z"/><!-- map continues through all metropolitan departments in the same package source --></svg>